<mxfile host="app.diagrams.net" modified="2022-08-21T21:37:59.272Z" agent="5.0 (Windows)" etag="0CmUvwwLthyocJc2f39A" version="20.2.5" type="github">
  <diagram id="OT5QoU7A1botKxumMuYd" name="Pagina-1">
    <mxGraphModel dx="1138" dy="602" grid="1" gridSize="10" guides="1" tooltips="1" connect="1" arrows="1" fold="1" page="1" pageScale="1" pageWidth="827" pageHeight="1169" math="0" shadow="0">
      <root>
        <mxCell id="0" />
        <mxCell id="1" parent="0" />
        <mxCell id="bDYjQF0ll-Un6SVA7kcn-1" value="&lt;div style=&quot;font-size: 12px;&quot; align=&quot;left&quot;&gt;&lt;font style=&quot;font-size: 12px;&quot; face=&quot;Verdana&quot;&gt;&lt;b&gt;†&lt;span style=&quot;&quot;&gt; &lt;/span&gt;&lt;/b&gt;&lt;/font&gt;&lt;font style=&quot;font-size: 12px;&quot;&gt;&lt;span style=&quot;&quot;&gt; &lt;/span&gt;&lt;span style=&quot;white-space: pre;&quot;&gt; &lt;/span&gt;Overleden&lt;/font&gt;&lt;/div&gt;&lt;div style=&quot;font-size: 12px;&quot; align=&quot;left&quot;&gt;&lt;font style=&quot;font-size: 12px;&quot;&gt;&lt;span lang=&quot;EN-US&quot;&gt;⚭&lt;span style=&quot;&quot;&gt; &lt;/span&gt;&lt;/span&gt;&lt;span style=&quot;white-space: pre;&quot;&gt; &lt;/span&gt;Gehuwd&lt;/font&gt;&lt;/div&gt;&lt;div style=&quot;font-size: 12px;&quot; align=&quot;left&quot;&gt;&lt;font style=&quot;font-size: 12px;&quot;&gt;&lt;font style=&quot;font-size: 12px;&quot;&gt;&lt;span lang=&quot;EN-US&quot;&gt;&lt;span lang=&quot;EN-US&quot;&gt;⚮ &lt;/span&gt;&lt;/span&gt;&lt;/font&gt;&lt;span style=&quot;white-space: pre;&quot;&gt; &lt;/span&gt;Gescheiden&lt;br&gt;&lt;/font&gt;&lt;/div&gt;" style="text;html=1;strokeColor=none;fillColor=none;align=left;verticalAlign=middle;whiteSpace=wrap;rounded=0;fillStyle=auto;fontFamily=Verdana;fontSize=8;fontColor=#000000;" vertex="1" parent="1">
          <mxGeometry x="3.01" y="6" width="110.64" height="60" as="geometry" />
        </mxCell>
        <mxCell id="bDYjQF0ll-Un6SVA7kcn-2" value="&lt;div&gt;&lt;font style=&quot;font-size: 10px;&quot;&gt;♀ &lt;b&gt;..&lt;br&gt;&lt;/b&gt;&lt;/font&gt;&lt;/div&gt;&lt;div&gt;&lt;font style=&quot;font-size: 10px;&quot; size=&quot;3&quot;&gt;( - &lt;/font&gt;&lt;font style=&quot;font-size: 10px;&quot; size=&quot;3&quot;&gt;&lt;font style=&quot;font-size: 10px;&quot; face=&quot;Verdana&quot;&gt;&lt;font style=&quot;font-size: 10px;&quot; size=&quot;3&quot;&gt;&lt;b&gt;†&lt;/b&gt; ??&lt;/font&gt;&lt;/font&gt;)&lt;/font&gt;&lt;font size=&quot;3&quot;&gt;&lt;i&gt;&lt;br&gt;&lt;/i&gt;&lt;/font&gt;&lt;/div&gt;" style="rounded=1;whiteSpace=wrap;html=1;fillColor=#FFC0CB;strokeColor=#FF1493;fillStyle=auto;fontFamily=Verdana;fontSize=10;fontColor=#000000;" vertex="1" parent="1">
          <mxGeometry x="358.86000000000007" y="30" width="84.69" height="80" as="geometry" />
        </mxCell>
        <mxCell id="bDYjQF0ll-Un6SVA7kcn-3" value="&lt;div&gt;&lt;font style=&quot;font-size: 10px;&quot; face=&quot;Verdana&quot;&gt;♂ &lt;b&gt;..&lt;/b&gt;&lt;/font&gt;&lt;/div&gt;&lt;br&gt;&lt;div&gt;&lt;font style=&quot;font-size: 10px;&quot; face=&quot;Verdana&quot;&gt;( -&amp;nbsp; &lt;/font&gt;&lt;font style=&quot;font-size: 10px;&quot; face=&quot;Verdana&quot;&gt;&lt;font style=&quot;font-size: 10px;&quot; size=&quot;3&quot;&gt;&lt;b&gt;†&lt;/b&gt;&lt;/font&gt;)&lt;/font&gt;&lt;/div&gt;&lt;div&gt;&lt;br&gt;&lt;/div&gt;" style="rounded=1;whiteSpace=wrap;html=1;fillStyle=auto;strokeColor=#00BFFF;fillColor=#87CEFA;gradientColor=none;fontFamily=Verdana;fontSize=10;fontColor=#000000;" vertex="1" parent="1">
          <mxGeometry x="475.59000000000003" y="30" width="85" height="80" as="geometry" />
        </mxCell>
        <mxCell id="bDYjQF0ll-Un6SVA7kcn-4" value="" style="shape=umlActor;verticalLabelPosition=bottom;verticalAlign=top;html=1;outlineConnect=0;fillStyle=auto;fontFamily=Verdana;fontSize=10;fontColor=#000000;strokeColor=#FF1493;strokeWidth=2;fillColor=#FFC0CB;gradientColor=none;" vertex="1" parent="1">
          <mxGeometry x="358.86000000000007" y="132" width="15.01" height="20" as="geometry" />
        </mxCell>
        <mxCell id="bDYjQF0ll-Un6SVA7kcn-5" value="&lt;div align=&quot;center&quot;&gt;&lt;br&gt;&lt;/div&gt;" style="shape=umlActor;verticalLabelPosition=bottom;verticalAlign=top;html=1;outlineConnect=0;fillStyle=auto;fontFamily=Verdana;fontSize=10;fontColor=#000000;strokeColor=#00BFFF;strokeWidth=2;fillColor=#87CEFA;gradientColor=none;align=center;" vertex="1" parent="1">
          <mxGeometry x="381.52000000000004" y="132" width="14.69" height="20" as="geometry" />
        </mxCell>
        <mxCell id="bDYjQF0ll-Un6SVA7kcn-9" value="" style="shape=mxgraph.signs.transportation.ship_2;html=1;pointerEvents=1;fillColor=#ffcd28;strokeColor=#d79b00;verticalLabelPosition=bottom;verticalAlign=top;align=center;sketch=0;fontSize=9;gradientColor=#ffa500;" vertex="1" parent="1">
          <mxGeometry x="60" y="90" width="31.15" height="28" as="geometry" />
        </mxCell>
        <mxCell id="bDYjQF0ll-Un6SVA7kcn-10" value="" style="line;strokeWidth=2;direction=south;html=1;fillStyle=auto;fontFamily=Verdana;fontSize=10;fillColor=#87CEFA;gradientColor=none;fontColor=#000000;" vertex="1" parent="1">
          <mxGeometry x="225.8299999999999" y="69" width="10" height="21" as="geometry" />
        </mxCell>
        <mxCell id="bDYjQF0ll-Un6SVA7kcn-11" value="" style="strokeWidth=2;html=1;shape=mxgraph.flowchart.annotation_2;align=left;labelPosition=right;pointerEvents=1;fillStyle=auto;fontFamily=Verdana;fontSize=10;fillColor=#87CEFA;gradientColor=none;rotation=90;" vertex="1" parent="1">
          <mxGeometry x="310" y="118" width="19.52" height="160" as="geometry" />
        </mxCell>
        <mxCell id="bDYjQF0ll-Un6SVA7kcn-12" value="..." style="text;html=1;strokeColor=none;fillColor=none;align=center;verticalAlign=middle;whiteSpace=wrap;rounded=0;fillStyle=auto;fontFamily=Verdana;fontSize=8;fontColor=#000000;rotation=-90;" vertex="1" parent="1">
          <mxGeometry x="170" y="240" width="40" height="18" as="geometry" />
        </mxCell>
      </root>
    </mxGraphModel>
  </diagram>
</mxfile>
